<svg xmlns="http://www.w3.org/2000/svg" width="256" height="256" viewBox="0 0 100 100"><rect width="100" height="100" rx="50" fill="#c4eee6"></rect><path d="M54.64 51.36L54.64 68.72Q54.64 70.16 53.80 71.12Q52.96 72.08 51.28 72.96L51.28 72.96Q49.28 73.92 45.76 74.64Q42.24 75.36 38.64 75.36L38.64 75.36Q33.04 75.36 28.40 73.84Q23.76 72.32 20.40 69.20Q17.04 66.08 15.20 61.32Q13.36 56.56 13.36 50.08L13.36 50.08Q13.36 43.68 15.28 38.88Q17.20 34.08 20.52 30.92Q23.84 27.76 28.24 26.20Q32.64 24.64 37.60 24.64L37.60 24.64Q40.96 24.64 43.80 25.20Q46.64 25.76 48.64 26.68Q50.64 27.60 51.76 28.72Q52.88 29.84 52.88 30.96L52.88 30.96Q52.88 32.08 52.24 32.88Q51.60 33.68 50.72 34.08L50.72 34.08Q48.56 32.64 45.60 31.40Q42.64 30.16 38 30.16L38 30.16Q34.16 30.16 30.88 31.44Q27.60 32.72 25.20 35.20Q22.80 37.68 21.44 41.44Q20.08 45.20 20.08 50.08L20.08 50.08Q20.08 55.28 21.48 59.00Q22.88 62.72 25.40 65.12Q27.92 67.52 31.32 68.68Q34.72 69.84 38.72 69.84L38.72 69.84Q41.60 69.84 44.16 69.36Q46.72 68.88 48.16 68.16L48.16 68.16L48.16 53.44L36.08 53.44Q35.84 53.04 35.60 52.36Q35.36 51.68 35.36 50.88L35.36 50.88Q35.36 49.52 36 48.76Q36.64 48.00 37.84 48.00L37.84 48.00L51.20 48.00Q52.64 48.00 53.64 48.92Q54.64 49.84 54.64 51.36L54.64 51.36ZM78.80 75.36L78.80 75.36Q73.20 75.36 69.72 72.88Q66.24 70.40 66.24 64.64L66.24 64.64L66.24 26.64Q66.64 26.48 67.48 26.28Q68.32 26.08 69.28 26.08L69.28 26.08Q72.64 26.08 72.64 28.96L72.64 28.96L72.64 38.16L85.76 38.16Q86 38.56 86.24 39.24Q86.48 39.92 86.48 40.72L86.48 40.72Q86.48 43.44 84.08 43.44L84.08 43.44L72.64 43.44L72.64 64.24Q72.64 67.44 74.44 68.76Q76.24 70.08 79.52 70.08L79.52 70.08Q80.88 70.08 82.56 69.60Q84.24 69.12 85.36 68.48L85.36 68.48Q85.84 68.96 86.24 69.68Q86.64 70.40 86.64 71.36L86.64 71.36Q86.64 73.12 84.56 74.24Q82.48 75.36 78.80 75.36Z" fill="#ffffff"></path></svg>